# xmcd
#
# Track frame offsets:
#	150
#	21795
#	38995
#	60217
#	82515
#	103955
#	120937
#	143285
#
# Disc length: 2144 seconds
#
# Revision: 1
# Processed by: cddbd v1.4PL0 Copyright (c) Steve Scherf et al.
# Submitted via: EasyCDDAExtractor 5.0.6
#
DISCID=4f085e08
DTITLE=Angelito Villalona - La Negra Chula
DYEAR=1992
DGENRE=Merengue
TTITLE0=La Negra Chula
TTITLE1=Muchachita (chapeadita)
TTITLE2=Droga
TTITLE3=Donde Estara
TTITLE4=Bailalo En La Calle
TTITLE5=Mete y Saca
TTITLE6=La Felicidad
TTITLE7=Que No Se Pare El Baile
EXTD=
EXTT0=
EXTT1=
EXTT2=
EXTT3=
EXTT4=
EXTT5=
EXTT6=
EXTT7=
PLAYORDER=
